<?xml version="1.0" standalone="no"?>
<!DOCTYPE svg PUBLIC "-//W3C//DTD SVG 20010904//EN"
 "http://www.w3.org/TR/2001/REC-SVG-20010904/DTD/svg10.dtd">
<svg version="1.0" xmlns="http://www.w3.org/2000/svg"
 width="500.000000pt" height="500.000000pt" viewBox="0 0 500.000000 500.000000"
 preserveAspectRatio="xMidYMid meet">
<metadata>
Created by potrace 1.14, written by Peter Selinger 2001-2017
</metadata>
<g transform="translate(0.000000,500.000000) scale(0.100000,-0.100000)"
fill="#000000" stroke="none">
<path d="M2335 4744 c-329 -34 -562 -98 -821 -224 -455 -223 -812 -580 -1033
-1034 -109 -222 -169 -417 -208 -666 -24 -158 -24 -481 0 -640 113 -742 571
-1372 1231 -1694 227 -111 428 -174 676 -213 158 -24 481 -24 640 0 744 114
1372 570 1694 1231 111 227 174 428 213 676 24 158 24 481 0 640 -115 748
-570 1372 -1241 1699 -220 108 -419 170 -656 206 -102 15 -415 27 -495 19z
m393 -238 c164 -245 188 -629 53 -861 -16 -27 -55 -79 -87 -115 -129 -145
-201 -266 -235 -399 -26 -98 -35 -303 -20 -440 6 -57 9 -106 7 -108 -8 -8 -95
149 -121 217 -63 166 -81 337 -50 476 31 140 79 227 205 374 174 202 230 339
230 559 0 103 -18 275 -36 346 -3 14 -4 25 -1 25 3 0 28 -33 55 -74z m-483
-303 c59 -96 88 -199 89 -328 2 -164 -30 -244 -151 -379 -54 -60 -106 -153
-128 -226 -21 -71 -29 -225 -18 -317 5 -40 6 -73 1 -73 -4 0 -28 42 -52 93
-78 161 -93 305 -46 442 25 74 48 110 132 209 134 157 171 277 150 481 -7 61
-15 120 -18 133 -10 36 2 26 41 -35z m870 0 c59 -96 88 -199 89 -328 1 -160
-28 -241 -134 -360 -75 -85 -114 -149 -141 -235 -24 -78 -34 -228 -22 -327 5
-40 6 -73 1 -73 -4 0 -28 42 -52 93 -79 162 -93 301 -46 442 22 66 50 110 149
231 121 149 152 257 132 454 -6 64 -14 125 -17 138 -10 36 2 26 41 -35z m272
-1930 c-20 -422 -182 -793 -435 -993 -37 -30 -70 -56 -74 -59 -9 -8 389 5 567
19 116 8 142 7 153 -4 8 -8 11 -19 8 -24 -17 -28 -264 -120 -399 -149 -74 -16
-146 -18 -712 -18 l-630 0 -107 27 c-106 27 -293 96 -335 124 -26 17 -30 39
-8 47 8 4 65 2 127 -3 62 -5 221 -11 353 -15 l240 -6 -40 33 c-22 17 -64 56
-94 85 l-54 53 -111 0 c-190 0 -282 36 -395 156 -117 123 -161 226 -161 379 0
219 101 355 293 395 56 11 57 12 57 46 l0 34 882 0 881 0 -6 -127z"/>
<path d="M1535 2176 c-60 -28 -77 -46 -106 -111 -17 -39 -22 -70 -23 -135 0
-109 19 -166 86 -254 86 -113 185 -166 309 -166 l58 0 -34 58 c-76 128 -153
364 -177 543 -11 86 -12 89 -37 89 -14 0 -48 -11 -76 -24z"/>
</g>
</svg>
